<svg version="1.1" xmlns="http://www.w3.org/2000/svg" style="display: block;" viewBox="0 0 1624 1720" width="406" height="430" preserveAspectRatio="none">
<path transform="translate(0,0)" fill="rgb(246,214,101)" d="M 795.611 484.43 C 796.239 484.405 796.867 484.385 797.495 484.371 C 867.073 482.673 945.866 505.324 1009.35 533.238 C 1021.32 538.501 1036.21 547.16 1047.97 553.658 C 1081.12 571.976 1107.75 587.401 1135.07 613.681 C 1167.6 644.978 1174.74 666.967 1192.63 705.35 C 1217.57 758.875 1234.27 811.459 1236.36 871.085 C 1235.21 896.69 1239.82 926.836 1236.02 951.999 C 1232.76 973.634 1222.41 1010.83 1213.64 1030.94 C 1196.66 1070.66 1174.4 1102.5 1148.57 1136.36 C 1121.15 1172.32 1099.92 1192.28 1063.01 1218.97 C 999.261 1265.07 929.746 1292.62 850.511 1294.01 C 707.067 1297.99 586.22 1266.68 500.639 1147.92 C 467.811 1106.54 434.392 1054.78 419.751 1003.91 C 407.054 959.794 402.833 913.164 404.018 867.822 C 405.6 807.243 406.911 746.657 433.301 690.806 C 439.803 677.045 469.082 651.118 480.417 639.565 C 559.242 559.226 681.168 488.952 795.611 484.43 z"/>
<path transform="translate(0,0)" fill="rgb(238,146,113)" d="M 822.039 787.508 C 835.734 772.383 845.815 756.139 861.622 742.39 C 888.553 718.966 916.865 702.745 953.605 705.176 C 982.629 706.985 1009.76 720.203 1029.07 741.945 C 1065.7 784.004 1071.72 850.929 1052.58 902.463 C 1032.58 956.312 987.144 1012.43 943.84 1049.78 C 936.018 1057.43 927.149 1064.13 919.086 1071.44 C 887.609 1100 851.062 1119.63 816.915 1144.38 C 806.181 1138.03 791.472 1127.67 780.928 1120.73 C 758.909 1106.23 732.116 1087.91 712.372 1070.61 C 656.84 1021.95 587.855 934.434 582.72 857.837 C 579.99 817.113 586.176 772.441 615.019 741.986 C 636.035 719.795 660.792 707.481 691.289 705.42 C 732.976 703.14 774.041 732.122 799.773 762.693 C 806.839 771.086 814.264 779.807 822.039 787.508 z"/>
<path transform="translate(0,0)" fill="rgb(246,214,101)" d="M 1272.22 257.186 C 1295.16 256.642 1330.18 282.939 1342.84 301.523 C 1351.7 314.525 1309.68 358.659 1302.23 370.82 C 1287.49 395.554 1269.73 415.619 1251.51 437.532 C 1219.47 476.06 1199.01 507.995 1153.59 532.106 C 1148.46 534.66 1144.3 535.407 1138.74 536.724 C 1130.06 533.275 1089.47 506.208 1085.45 497.783 C 1083.85 485.175 1100.66 457.591 1105.44 448.116 C 1117.65 425.266 1134.92 400.479 1152.54 381.349 C 1182.41 348.902 1229.23 269.282 1272.22 257.186 z"/>
<path transform="translate(0,0)" fill="rgb(246,214,101)" d="M 1493.08 566.432 C 1524.99 569.005 1545.45 575.581 1556.6 607.561 C 1569.11 643.442 1554.08 652.539 1526.53 667.959 C 1483.94 691.793 1440.91 704.765 1394.67 719.19 C 1374.37 725.521 1352.92 730.324 1333.6 738.162 C 1294.2 749.933 1272.76 721.395 1267.31 687.224 C 1262.62 657.804 1270.48 657.058 1294.4 645.526 C 1341.65 622.755 1386.48 598.373 1436.47 582.222 C 1458.27 575.08 1469.23 569.364 1493.08 566.432 z"/>
<path transform="translate(0,0)" fill="rgb(246,214,101)" d="M 486.485 215.343 C 545.854 209.601 605.977 370.278 631.574 413.77 C 634.495 418.732 640.945 434.768 641.403 440.62 C 644.046 474.409 605.923 479.239 581.803 482.336 C 564.264 481.688 537.049 454.766 526.961 440.88 C 513.453 422.286 503.119 399.946 490.756 380.233 C 473.434 352.613 453.701 326.73 437.175 298.682 C 427.653 282.48 417.852 260.45 430.714 243.234 C 442.668 228.112 467.957 218.147 486.485 215.343 z"/>
<path transform="translate(0,0)" fill="rgb(246,214,101)" d="M 192.02 497.256 C 221.222 494.375 254.235 517.817 279.152 531.82 C 315.766 552.398 355.188 571.301 388.2 597.248 C 407.047 612.062 426.066 633.744 430.068 658.162 C 431.616 668.234 425.313 677.173 419.07 684.428 C 408.2 697.06 398.936 697.753 383.427 698.933 C 331.017 699.613 279.516 647.828 232.785 628.871 C 213.899 621.211 197.323 613.29 181.524 600.049 C 162.537 584.135 154.591 571.891 144.737 549.627 C 148.561 533.26 176.239 501.674 192.02 497.256 z"/>
<path transform="translate(0,0)" fill="rgb(246,214,101)" d="M 383.224 1124.33 C 388.157 1124.37 396.14 1124.16 400.936 1125.89 C 417.514 1131.85 432.124 1151.47 441.412 1165.78 C 444 1169.76 445.873 1178.35 443.558 1182.66 C 438.165 1192.69 433.462 1204 426.194 1212.86 C 389.946 1251.2 346.585 1283.15 302.039 1311.06 C 285.918 1321.16 265.812 1330.29 249.099 1338.24 C 234.042 1341.67 217.144 1330.53 205.417 1322.25 C 182.876 1306.34 184.218 1275.49 200.803 1255.91 C 222.049 1230.83 248.399 1208.21 273.695 1187.3 C 295.8 1168.85 318.12 1148.61 343.418 1134.32 C 355.53 1127.57 369.724 1125.6 383.224 1124.33 z"/>
<path transform="translate(0,0)" fill="rgb(246,214,101)" d="M 864.395 148.366 C 869.897 147.641 913.12 149.868 919.577 153.469 C 921.735 154.385 924.416 158.381 924.824 160.813 C 934.812 220.282 923.316 285.001 915.612 344.305 C 912.978 364.579 913.425 378.543 905.103 396.454 C 900.331 406.725 878.389 420.38 868.851 423.871 C 863.773 424.282 858.697 424.094 853.705 423.058 C 842.246 420.682 819.368 415.217 812.968 404.516 C 794.138 373.034 807.915 240.391 816.784 202.697 C 820.705 186.034 824.122 159.644 839.633 150.037 C 849.414 150.331 854.875 149.64 864.395 148.366 z"/>
<path transform="translate(0,0)" fill="rgb(246,214,101)" d="M 1195.54 1168.2 C 1207.26 1168.03 1221.01 1169.3 1231.89 1173.89 C 1266.97 1188.67 1379.16 1307.15 1393.21 1342.63 C 1396.36 1350.59 1395.59 1357.43 1392.18 1365.11 C 1385.32 1380.56 1375.04 1391.44 1359.27 1397.43 C 1347.27 1400.55 1325.72 1403.81 1314.78 1396.53 C 1283.29 1375.42 1257.9 1345.01 1231.04 1318.51 C 1212.86 1301.07 1194.95 1284.29 1181.47 1263.28 C 1159.21 1228.58 1150.22 1218.52 1178.43 1183.13 C 1184.45 1175.58 1184.66 1171.29 1195.54 1168.2 z"/>
<path transform="translate(0,0)" fill="rgb(246,214,101)" d="M 274.304 878.39 C 315.082 875.252 343.046 896.49 340.852 938.464 C 340.223 963.562 324.911 969.824 305.094 979.153 C 278.584 991.634 251.889 990.122 223.368 990.893 C 188.919 991.824 154.176 992.238 119.76 989.656 C 101.484 986.825 78.9611 983.588 63.6978 972.671 C 55.1502 966.558 50.7085 958.797 49.0384 948.422 C 47.184 936.902 48.1357 923.518 55.3314 913.867 C 75.6619 886.601 184.563 886.131 218.833 883.969 C 237.372 882.628 255.869 880.767 274.304 878.39 z"/>
<path transform="translate(0,0)" fill="rgb(246,214,101)" d="M 614.674 1294.15 C 621.227 1293.16 661.962 1313.44 663.134 1318.9 C 668.74 1347.61 654.609 1391.62 646.754 1419.39 C 637.809 1451 600.996 1573.79 558.759 1560.98 C 545.855 1557.93 522.83 1544.44 511.46 1536.85 C 508.09 1534.61 505.829 1531.63 505.769 1527.47 C 505.597 1515.47 510.87 1500.41 513.558 1488.53 C 519.159 1463.78 523.907 1439.68 532.225 1415.68 C 541.306 1389.48 553.97 1365.49 566.153 1340.69 C 571.615 1329.56 577.978 1311.63 585.683 1302.89 C 595.032 1298.92 604.563 1297.95 614.674 1294.15 z"/>
<path transform="translate(0,0)" fill="rgb(246,214,101)" d="M 1354.57 934.365 C 1360.82 934.064 1387.44 935.519 1396.17 935.955 C 1445.74 938.429 1495.51 931.225 1539.24 960.022 C 1555.1 970.467 1554.61 991.463 1558.33 1008 C 1559.19 1013.55 1557.07 1019.98 1553.18 1023.9 C 1532.87 1044.44 1506.13 1044.19 1480.37 1045.5 C 1441.49 1046.67 1377.9 1030.13 1338.27 1023.3 C 1325.63 1021.18 1312.98 1018.32 1300.38 1016.18 C 1276.24 1012.1 1270.72 980.757 1276.49 960.535 C 1282.93 952.856 1304.01 939.89 1314.16 938.558 C 1327.38 936.821 1341.05 936.228 1354.57 934.365 z"/>
<path transform="translate(0,0)" fill="rgb(246,214,101)" d="M 971.996 1318.41 C 1015.7 1318.91 1067.84 1508.32 1053.15 1544.87 C 1049.37 1554.25 1008.52 1563.13 999.206 1565.44 C 996.311 1566.5 991.513 1569.64 988.699 1571.34 C 986.768 1569.98 984.87 1568.57 983.005 1567.12 C 978.199 1563.36 968.749 1555.16 965.583 1549.51 C 942.833 1508.84 929.777 1449.56 921.29 1403.82 C 918.414 1388.32 918.318 1342.33 929.033 1331.17 C 940.893 1318.83 956.425 1319.39 971.996 1318.41 z"/>
</svg>